{"title":"My Dil Goes Mmmm - Salaam Namaste (2005) [UJ.rip]","uid":7483066,"size":234424466,"categoryP":"video","categoryS":"music_videos","magnet":"?xt=urn:btih:3cda9f6492c37857e82f2ade54e223d0e348b93a&amp;dn=My+Dil+Goes+Mmmm+-+Salaam+Namaste+%282005%29+%5BUJ.rip%5D&amp;tr=udp%3A%2F%2Ftracker.openbittorrent.com%3A80&amp;tr=udp%3A%2F%2Fopen.demonii.com%3A1337&amp;tr=udp%3A%2F%2Ftracker.coppersurfer.tk%3A6969&amp;tr=udp%3A%2F%2Fexodus.desync.com%3A6969","seeders":1,"leechers":0,"uploader":"AshUtpal","files":1,"time":1343491283,"description":"My Dil Goes Mmmm - Salaam Namaste (2005) [UJ.rip].avi\n====================================================================================\n====================================================================================\n\n---------------------------------------------------------------------\n             My Dil Goes Mmmm - Salaam Namaste (2005)\n---------------------------------------------------------------------\n\nFormat                                   : AVI\nFormat/Info                              : Audio Video Interleave\nFile size                                : 224 MiB\nDuration                                 : 6mn 3s\nOverall bit rate                         : 5 161 Kbps\nMovie name                               : My Dil Goes Mmmm [UJ.rip]\nDirector                                 : Salaam Namaste\nGenre                                    : Bollywood\nRecorded date                            : 07/28/2012\nWriting application                      : Lavf52.39.1\nCopyright                                : @Utpal\nRipped by                                : UJ.rip on 7/28/2012\nPosted by                                : UJ.rip on 7/28/2012\n\n---------------------------------------------------------------------\n                       Video\n---------------------------------------------------------------------\n\nID                                       : 0\nFormat                                   : xvid\nCodec ID                                 : xvid\nDuration                                 : 6mn 3s\nBit rate                                 : 5 019 Kbps\nWidth                                    : 1 920 pixels\nHeight                                   : 1 080 pixels\nDisplay aspect ratio                     : 16:9\nFrame rate                               : 30.000 fps\nBits/(Pixel*Frame)                       : 0.081\nStream size                              : 217 MiB (97%)\n\n---------------------------------------------------------------------\n                       Audio\n---------------------------------------------------------------------\n\nID                                       : 1\nFormat                                   : MPEG Audio\nFormat version                           : Version 1\nFormat profile                           : Layer 3\nMode                                     : Joint stereo\nMode extension                           : MS Stereo\nCodec ID                                 : 55\nCodec ID/Hint                            : MP3\nDuration                                 : 6mn 3s\nBit rate mode                            : Constant\nBit rate                                 : 128 Kbps\nChannel(s)                               : 2 channels\nSampling rate                            : 48.0 KHz\nCompression mode                         : Lossy\nStream size                              : 5.55 MiB (2%)\nAlignment                                : Aligned on interleaves\nInterleave, duration                     : 24 ms (0.72 video frame)\nLanguage                                 : hin\n\n---------------------------------------------------------------------\nRipped By Utpal &amp; Jayant\n---------------------------------------------------------------------\n\n\nCover:                   &lt;a href=&quot;\nhttp://img13.imageshack.us/img13/1536/salaamnamastedvd.jpg&quot; rel=&quot;nofollow&quot; target=&quot;_NEW&quot;&gt;\nhttp://img13.imageshack.us/img13/1536/salaamnamastedvd.jpg&lt;/a&gt;\n\nScreenShots: &lt;a href=&quot;\nhttp://img864.imageshack.us/img864/8476/mydilgoesmmmmsalaamnama.jpg&quot; rel=&quot;nofollow&quot; target=&quot;_NEW&quot;&gt;\nhttp://img864.imageshack.us/img864/8476/mydilgoesmmmmsalaamnama.jpg&lt;/a&gt;\n\nUploader:                   &lt;a href=&quot;\nhttp://img402.imageshack.us/img402/4747/uploadera.jpg&quot; rel=&quot;nofollow&quot; target=&quot;_NEW&quot;&gt;\nhttp://img402.imageshack.us/img402/4747/uploadera.jpg&lt;/a&gt;\n\n                   &lt;a href=&quot;\nhttp://thepiratebay.se/user/AshUtpal&quot; rel=&quot;nofollow&quot; target=&quot;_NEW&quot;&gt;\nhttp://thepiratebay.se/user/AshUtpal&lt;/a&gt;\t","torrent":{"xt":"urn:btih:3cda9f6492c37857e82f2ade54e223d0e348b93a","amp;dn":"My+Dil+Goes+Mmmm+-+Salaam+Namaste+%282005%29+%5BUJ.rip%5D","amp;tr":["udp%3A%2F%2Ftracker.openbittorrent.com%3A80","udp%3A%2F%2Fopen.demonii.com%3A1337","udp%3A%2F%2Ftracker.coppersurfer.tk%3A6969","udp%3A%2F%2Fexodus.desync.com%3A6969"],"infoHash":"3cda9f6492c37857e82f2ade54e223d0e348b93a","infoHashBuffer":{"type":"Buffer","data":[60,218,159,100,146,195,120,87,232,47,42,222,84,226,35,208,227,72,185,58]},"announce":[],"urlList":[]}}